<?xml version="1.0" encoding="UTF-8"?><svg id="Layer_1" xmlns="http://www.w3.org/2000/svg" width="99.84" height="101.23" xmlns:xlink="http://www.w3.org/1999/xlink" viewBox="0 0 99.84 101.23"><defs><style>.cls-1{fill:none;}.cls-1,.cls-2,.cls-3{stroke-width:0px;}.cls-4{clip-path:url(#clippath);}.cls-2{fill:#87cbfa;}.cls-3{fill:#1d2e60;}</style><clipPath id="clippath"><path class="cls-1" d="M19.28-8.81v137.74h79.81V-8.81H19.28ZM49.07,59.5l-.02.87c-3.2.04-7.4.1-12.6.17.02-1.53.04-2.95.07-4.28l12.75.23c-.14.83-.21,1.83-.21,3.02ZM49.88,19.13c-.32,8-.49,14.68-.51,19.87l-.66.79c-.19-.5-.38-.98-.58-1.49-3.62-9.06-6-15.16-7.15-18.29-1.3,2.65-2.66,5.67-4.1,9.08l-.6-.63c-.05-.44-.09-.87-.14-1.28-.15-1.19-.32-2.25-.51-3.19,1.4-3.41,2.82-6.78,4.28-10.11h.4c3.53,0,6.9-.07,9.99-.23h.08c.65,1.51,1.33,3.12,2.04,4.82-.91.21-1.75.43-2.54.66Z"/></clipPath></defs><path class="cls-2" d="M69.57,51.46c7.47,1.97,13.06,4.72,16.77,8.25,3.71,3.54,5.57,7.83,5.57,12.9,0,5.42-2.31,10.42-6.92,15-4.62,4.62-11.4,6.93-20.35,6.93-1.69,0-4.38-.1-8.07-.3-2.37-.12-3.65-.18-3.85-.18-12.36,0-20.71.12-25.05.36-1.44,0-2.17-.38-2.17-1.14,0-.4.21-.68.63-.84.42-.16,1.98-.48,4.67-.96,1.61-.28,2.87-.96,3.79-2.05.92-1.08,1.63-3.29,2.11-6.62.48-3.33.72-8.29.72-14.87s.08-11.75.24-15.75c.16-3.99.24-7.05.24-9.18,0-6.62-.25-11.94-.75-15.96-.5-4.01-1.21-6.57-2.14-7.68-.92-1.1-2.81-1.88-5.66-2.32-1.16-.16-1.75-.58-1.75-1.26,0-.72.58-1.08,1.75-1.08l10.96.18c3.57,0,6.92-.08,10.06-.24,7.02-.36,11.56-.54,13.61-.54,7.43,0,13.33,1.62,17.7,4.87,4.34,3.25,6.5,7.68,6.5,13.3,0,4.41-1.43,8.2-4.27,11.37-2.85,3.17-7.63,5.78-14.33,7.82ZM48.91,54.26c-.56,1-.84,2.75-.84,5.24l-.42,18.67c0,6.58.17,10.26.51,11.02.34.76,1.51,1.41,3.49,1.93,1.99.52,5.13.78,9.42.78,3.81,0,6.91-.53,9.3-1.6,2.39-1.06,4.59-3.16,6.59-6.29,2.01-3.13,3.01-6.88,3.01-11.26,0-6.5-1.92-11.28-5.75-14.33-3.83-3.05-9.5-4.58-17.01-4.58-2.53,0-5.3.14-8.31.42ZM48.91,18.38c-.36,8.79-.54,15.92-.54,21.38l.06,8.91c0,1.2.17,1.97.51,2.29.34.32,1.27.48,2.8.48,7.63,0,13.75-1.39,18.36-4.18,4.62-2.79,6.92-7.48,6.92-14.06,0-5.58-1.72-9.74-5.15-12.49-3.43-2.75-7.7-4.12-12.79-4.12-2.97,0-6.36.6-10.18,1.81Z"/><path class="cls-3" d="M43.64,5.55h3.06c4.93,10.12,11.74,27.42,20.42,51.9,5.6,15.69,9.44,25.31,11.52,28.87,2.08,3.56,5.43,5.53,10.03,5.93,1.46.13,2.19.62,2.19,1.46,0,.62-.38.93-1.13.93l-.93-.07c-4.07-.35-9.24-.53-15.51-.53-9.63,0-15.82.15-18.56.46-1.37,0-2.05-.4-2.05-1.19,0-.57.51-.93,1.52-1.06,3.76-.35,6.35-.99,7.79-1.92,1.44-.93,2.15-2.39,2.15-4.37s-1.35-6.65-4.04-14.25l-3.91-11.4c-2.3,0-12.57.13-30.82.4-4.6,12.24-6.9,19.96-6.9,23.16,0,2.71,1.14,4.72,3.41,6.03,2.28,1.31,4.52,2.03,6.73,2.16,1.63.13,2.45.62,2.45,1.48,0,.34-.27.67-.8.97-7.07-.31-11.33-.46-12.79-.46-7.42,0-12.42.09-14.98.27-1.41,0-2.12-.4-2.12-1.19,0-.71.62-1.15,1.86-1.33,5.08-.66,8.97-4.11,11.67-10.34,2.69-6.23,6.9-17.43,12.6-33.6,5.22-14.71,10.93-28.81,17.12-42.29ZM40.99,20c-4.12,8.4-8.92,20.59-14.4,36.59,4.55-.22,7.82-.33,9.81-.33l18.63.33c-1.63-4.6-3.93-10.69-6.88-18.29-3.62-9.06-6-15.16-7.15-18.29Z"/><g class="cls-4"><path class="cls-2" d="M69.57,51.46c7.47,1.97,13.06,4.72,16.77,8.25,3.71,3.54,5.57,7.83,5.57,12.9,0,5.42-2.31,10.42-6.92,15-4.62,4.62-11.4,6.93-20.35,6.93-1.69,0-4.38-.1-8.07-.3-2.37-.12-3.65-.18-3.85-.18-12.36,0-20.71.12-25.05.36-1.44,0-2.17-.38-2.17-1.14,0-.4.21-.68.63-.84.42-.16,1.98-.48,4.67-.96,1.61-.28,2.87-.96,3.79-2.05.92-1.08,1.63-3.29,2.11-6.62.48-3.33.72-8.29.72-14.87s.08-11.75.24-15.75c.16-3.99.24-7.05.24-9.18,0-6.62-.25-11.94-.75-15.96-.5-4.01-1.21-6.57-2.14-7.68-.92-1.1-2.81-1.88-5.66-2.32-1.16-.16-1.75-.58-1.75-1.26,0-.72.58-1.08,1.75-1.08l10.96.18c3.57,0,6.92-.08,10.06-.24,7.02-.36,11.56-.54,13.61-.54,7.43,0,13.33,1.62,17.7,4.87,4.34,3.25,6.5,7.68,6.5,13.3,0,4.41-1.43,8.2-4.27,11.37-2.85,3.17-7.63,5.78-14.33,7.82ZM48.91,54.26c-.56,1-.84,2.75-.84,5.24l-.42,18.67c0,6.58.17,10.26.51,11.02.34.76,1.51,1.41,3.49,1.93,1.99.52,5.13.78,9.42.78,3.81,0,6.91-.53,9.3-1.6,2.39-1.06,4.59-3.16,6.59-6.29,2.01-3.13,3.01-6.88,3.01-11.26,0-6.5-1.92-11.28-5.75-14.33-3.83-3.05-9.5-4.58-17.01-4.58-2.53,0-5.3.14-8.31.42ZM48.91,18.38c-.36,8.79-.54,15.92-.54,21.38l.06,8.91c0,1.2.17,1.97.51,2.29.34.32,1.27.48,2.8.48,7.63,0,13.75-1.39,18.36-4.18,4.62-2.79,6.92-7.48,6.92-14.06,0-5.58-1.72-9.74-5.15-12.49-3.43-2.75-7.7-4.12-12.79-4.12-2.97,0-6.36.6-10.18,1.81Z"/></g></svg>